<?xml version="1.0" encoding="utf-8"?>
<!-- Generator: Adobe Illustrator 27.5.0, SVG Export Plug-In . SVG Version: 6.00 Build 0)  -->
<svg version="1.1" xmlns="http://www.w3.org/2000/svg" xmlns:xlink="http://www.w3.org/1999/xlink" x="0px" y="0px"
	 viewBox="0 0 500 500" style="enable-background:new 0 0 500 500;" xml:space="preserve">
<g id="BACKGROUND">
</g>
<g id="OBJECT">
	<g>
		
			<text transform="matrix(1 0 0 1 160.3926 405.6309)" style="font-family:'Mansalva-Regular'; font-size:101.7217px; letter-spacing:-7;">Sake</text>
		<g>
			<path style="fill:none;" d="M293.448,300.885c-0.59,5.562-1.355,11.102-2.349,16.588c-0.623,3.41-1.333,6.797-2.218,10.141
				c-0.382,1.41-0.776,2.808-1.224,4.196c-0.186,0.59-0.383,1.169-0.579,1.748c-0.044,0.109-0.164,0.459-0.197,0.557
				c-0.087,0.219-0.164,0.437-0.251,0.656c-0.699,1.825-1.497,3.617-2.459,5.333c-0.371,0.656-0.754,1.289-1.18,1.912
				c-0.109,0.153-0.24,0.317-0.35,0.426l0.219-0.219c-0.219,0.219-0.383,0.492-0.59,0.721c-0.339,0.404-0.71,0.765-1.082,1.137
				c-0.175,0.077-0.404,0.175-0.579,0.251c-0.841,0.055-1.825,0.273-2.71,0.634c-10.217,3.038-20.828,4.174-31.471,3.584
				c-2.382-0.131-4.764-0.35-7.136-0.634c-0.492-0.055-0.984-0.12-1.464-0.186c-0.219-0.033-0.437-0.066-0.656-0.098
				c-0.055,0-0.109-0.011-0.131-0.011c-0.994-0.164-2-0.328-2.994-0.503c-3.016-0.546-6.01-1.224-8.961-2.054
				c-1.311-0.371-2.623-0.754-3.901-1.224c-0.459-0.175-0.973-0.208-1.475-0.153c-0.142-0.098-0.273-0.186-0.415-0.284
				c-0.186-0.175-0.372-0.35-0.557-0.535c-0.896-0.918-1.661-1.978-2.349-3.071c-0.197-0.317-0.393-0.645-0.579-0.973
				c-0.098-0.164-0.186-0.339-0.284-0.514c-0.033-0.066-0.055-0.109-0.087-0.153c-0.022-0.044-0.044-0.087-0.055-0.109v-0.011
				c-0.011-0.011-0.011-0.011-0.011-0.011c0-0.011-0.011-0.022-0.011-0.033v-0.011c-0.415-0.841-0.809-1.672-1.169-2.535
				c-2.24-5.3-3.628-10.949-4.764-16.577c-1.3-6.491-2.24-13.059-2.928-19.648c-0.273-2.601,2.317-4.535,4.732-3.562
				c3.617,1.475,8.294,3.256,11.397,4.021c32.553,7.977,54.332,1.497,64.658-3.235C290.366,295.028,293.809,297.509,293.448,300.885
				z"/>
			<path style="fill:none;" d="M277.297,353.305c-0.022,0.371-0.066,0.754-0.142,1.125c-0.044,0.208-0.109,0.415-0.153,0.623
				c-0.011,0.044-0.011,0.055-0.011,0.076c-0.022,0.033-0.022,0.033-0.044,0.077c-0.197,0.393-0.393,0.776-0.623,1.158
				c-0.022,0.044-0.055,0.087-0.087,0.131c-0.164,0.175-0.317,0.382-0.481,0.557c-0.175,0.175-0.361,0.339-0.535,0.514
				c-0.087,0.065-0.164,0.12-0.251,0.186c-0.273,0.208-0.557,0.393-0.852,0.579c-0.077,0.055-0.164,0.098-0.251,0.153
				c-0.754,0.361-1.508,0.721-2.284,1.038c-0.055,0.022-0.109,0.044-0.142,0.055c-0.044,0.022-0.087,0.033-0.142,0.044
				c-0.568,0.186-1.136,0.361-1.716,0.525c-1.005,0.273-2.011,0.492-3.027,0.699c-0.055,0-0.951,0.175-1.191,0.208
				c-0.809,0.131-1.617,0.241-2.426,0.339c-3.333,0.393-6.688,0.579-10.042,0.623c-3.246,0.055-7.005-0.044-10.447-0.306
				c-1.388-0.109-2.776-0.24-4.163-0.426c-0.678-0.087-1.366-0.186-2.044-0.295c-0.066-0.011-0.59-0.098-0.634-0.109
				c-0.219-0.044-0.426-0.076-0.634-0.12c-2.076-0.426-4.098-0.995-6.076-1.749c-0.011,0-0.022-0.011-0.033-0.011
				c-0.033-0.022-0.066-0.033-0.087-0.033c-0.022-0.011-0.044-0.022-0.066-0.033c-0.033-0.022-0.065-0.033-0.087-0.044
				c0,0-0.011,0-0.022-0.011c-0.022-0.011-0.033-0.011-0.044-0.022c-0.022-0.011-0.033-0.011-0.033-0.011
				c-0.011-0.011-0.022-0.011-0.033-0.011c-0.011-0.011-0.011-0.011-0.011-0.011c-0.066-0.033-0.131-0.055-0.197-0.087
				c-0.35-0.175-0.699-0.35-1.049-0.546c-0.623-0.339-1.202-0.732-1.781-1.136c-0.011-0.022-0.033-0.033-0.055-0.044
				c0.011,0.011,0.022,0.011,0.033,0.011c-0.022-0.022-0.098-0.087-0.262-0.208c-0.011-0.011-0.033-0.022-0.044-0.033
				c-0.175-0.175-0.35-0.339-0.524-0.514c-0.372-0.404-0.721-0.841-1.027-1.3c-0.088-0.142-0.208-0.426-0.251-0.514
				c0.011,0.044,0.066,0.164,0.153,0.383c-0.066-0.175-0.164-0.35-0.24-0.525c-0.186-0.437-0.317-0.896-0.415-1.366
				c-0.044-0.197-0.066-0.404-0.098-0.612c-0.011-0.066-0.011-0.12-0.011-0.186c0.044-0.339,0.033-0.688,0.055-1.027
				c2.852,0.841,5.781,1.475,8.677,2.033c9.704,1.847,19.626,2.524,29.472,1.694c5.508-0.459,10.949-1.344,16.282-2.721
				c0.022,0.164,0.055,0.339,0.087,0.503v0.109c0,0.044-0.011,0.087,0,0.131C277.297,353.01,277.308,353.163,277.297,353.305z"/>
			<path style="fill:none;" d="M286.487,286.45c-10.709,6.425-23.254,9.026-36.662,9.026c-13.845,0-26.784-2.852-37.733-9.682
				c5.486-7.245,19.976-12.425,36.968-12.425C266.566,273.37,281.395,278.855,286.487,286.45z"/>
			<path style="fill:#FF1A1A;" d="M345.31,205.138c0,33.078-16.85,62.189-42.432,79.28c0.678-13.539,0.131-27.319-3.103-40.519
				c-2.339-9.518-6.229-18.631-11.627-26.816c-4.076-6.174-8.993-11.649-13.878-17.167c-3.409-3.857-6.906-7.78-8.524-12.763
				c-2.043-6.316-0.503-12.556,2.94-18.031c1.574-2.492,3.573-4.841,5.792-7.103c2.47-2.524,5.289-4.699,7.19-7.715
				c1.158-1.814,1.814-4.163,0.514-6.076c-0.688-1.016-1.891-1.683-3.06-2.076c-1.377-1.497-4.863-1.89-6.283-2.12
				c-4.207-0.688-8.502-0.907-12.753-1.071c-10.108-0.383-20.544-0.536-30.575,0.962c-2.382,0.361-6.043,0.754-8.01,2.623
				c-1.18,0.481-2.262,1.158-3.071,2.076c-2.677,3.049-0.667,6.589,1.65,9.168c1.661,1.836,3.584,3.409,5.311,5.191
				c1.595,1.639,3.104,3.366,4.458,5.212c2.688,3.65,4.721,7.759,5.267,12.294c0.612,5.005-1.158,9.846-3.912,13.944
				c-1.508,2.262-3.42,4.295-5.223,6.327c-3.355,3.803-6.764,7.562-9.868,11.594c-8.644,11.244-14.315,24.051-17.003,37.995
				c-1.923,9.933-2.437,20.107-2.164,30.215c0.033,1.279,0.087,2.557,0.142,3.836c-25.571-17.08-42.399-46.202-42.399-79.258
				c0-52.638,42.672-95.299,95.321-95.299C302.638,109.839,345.31,152.5,345.31,205.138z"/>
			<path style="fill:#020202;" d="M299.775,243.898c-2.339-9.518-6.229-18.631-11.627-26.816
				c-4.076-6.174-8.993-11.649-13.878-17.167c-3.409-3.857-6.906-7.78-8.524-12.763c-2.043-6.316-0.503-12.556,2.94-18.031
				c1.574-2.492,3.573-4.841,5.792-7.103c2.47-2.524,5.289-4.699,7.19-7.715c1.158-1.814,1.814-4.163,0.514-6.076
				c-0.688-1.016-1.891-1.683-3.06-2.076c-1.377-1.497-4.863-1.89-6.283-2.12c-4.207-0.688-8.502-0.907-12.753-1.071
				c-10.108-0.383-20.544-0.536-30.575,0.962c-2.382,0.361-6.043,0.754-8.01,2.623c-1.18,0.481-2.262,1.158-3.071,2.076
				c-2.677,3.049-0.667,6.589,1.65,9.168c1.661,1.836,3.584,3.409,5.311,5.191c1.595,1.639,3.104,3.366,4.458,5.212
				c2.688,3.65,4.721,7.759,5.267,12.294c0.612,5.005-1.158,9.846-3.912,13.944c-1.508,2.262-3.42,4.295-5.223,6.327
				c-3.355,3.803-6.764,7.562-9.868,11.594c-8.644,11.244-14.315,24.051-17.003,37.995c-1.923,9.933-2.437,20.107-2.164,30.215
				c0.033,1.279,0.087,2.557,0.142,3.836c0.011,0.186,0.011,0.372,0.022,0.546c0.033,0.743,0.077,1.475,0.12,2.218
				c0.011,0.24,0.033,0.448,0.066,0.634c0,0.131-0.022,0.251-0.011,0.372c0.656,10.337,1.738,20.686,3.65,30.87
				c1.136,6.087,2.557,12.206,4.885,17.954c1.825,4.491,4.579,10.206,9.463,12.086c-0.59,1.628-0.831,3.398-0.699,5.07
				c0.492,6.283,7.398,9.452,12.665,10.917c6.098,1.694,12.545,2.164,18.839,2.273c7.365,0.131,14.774-0.153,22.008-1.628
				c6.546-1.333,15.353-4.426,17.156-11.758c0.448-1.836,0.262-3.89-0.383-5.77c1.18-0.667,2.262-1.475,3.136-2.317
				c2.349-2.24,4.021-5.234,5.333-8.174c2.404-5.409,3.934-11.212,5.147-16.992c2.328-11.157,3.53-22.576,4.251-33.941
				c0-0.022,0.011-0.033,0.011-0.044c0.044-0.765,0.087-1.53,0.131-2.295C303.556,270.878,303.01,257.099,299.775,243.898z
				 M277.155,354.43c-0.044,0.208-0.109,0.415-0.153,0.623c-0.011,0.044-0.011,0.055-0.011,0.076
				c-0.022,0.033-0.022,0.033-0.044,0.077c-0.197,0.393-0.393,0.776-0.623,1.158c-0.022,0.044-0.055,0.087-0.087,0.131
				c-0.164,0.175-0.317,0.382-0.481,0.557c-0.175,0.175-0.361,0.339-0.535,0.514c-0.087,0.065-0.164,0.12-0.251,0.186
				c-0.273,0.208-0.557,0.393-0.852,0.579c-0.077,0.055-0.164,0.098-0.251,0.153c-0.754,0.361-1.508,0.721-2.284,1.038
				c-0.055,0.022-0.109,0.044-0.142,0.055c-0.044,0.022-0.087,0.033-0.142,0.044c-0.568,0.186-1.136,0.361-1.716,0.525
				c-1.005,0.273-2.011,0.492-3.027,0.699c-0.055,0-0.951,0.175-1.191,0.208c-0.809,0.131-1.617,0.241-2.426,0.339
				c-3.333,0.393-6.688,0.579-10.042,0.623c-3.246,0.055-7.005-0.044-10.447-0.306c-1.388-0.109-2.776-0.24-4.163-0.426
				c-0.678-0.087-1.366-0.186-2.044-0.295c-0.066-0.011-0.59-0.098-0.634-0.109c-0.219-0.044-0.426-0.076-0.634-0.12
				c-2.076-0.426-4.098-0.995-6.076-1.749c-0.011,0-0.022-0.011-0.033-0.011c-0.033-0.022-0.066-0.033-0.087-0.033
				c-0.022-0.011-0.044-0.022-0.066-0.033c-0.033-0.022-0.065-0.033-0.087-0.044c0,0-0.011,0-0.022-0.011
				c-0.022-0.011-0.033-0.011-0.044-0.022c-0.022-0.011-0.033-0.011-0.033-0.011c-0.011-0.011-0.022-0.011-0.033-0.011
				c-0.011-0.011-0.011-0.011-0.011-0.011c-0.066-0.033-0.131-0.055-0.197-0.087c-0.35-0.175-0.699-0.35-1.049-0.546
				c-0.623-0.339-1.202-0.732-1.781-1.136c-0.011-0.022-0.033-0.033-0.055-0.044c0.011,0.011,0.022,0.011,0.033,0.011
				c-0.022-0.022-0.098-0.087-0.262-0.208c-0.011-0.011-0.033-0.022-0.044-0.033c-0.175-0.175-0.35-0.339-0.524-0.514
				c-0.372-0.404-0.721-0.841-1.027-1.3c-0.088-0.142-0.208-0.426-0.251-0.514c0.011,0.044,0.066,0.164,0.153,0.383
				c-0.066-0.175-0.164-0.35-0.24-0.525c-0.186-0.437-0.317-0.896-0.415-1.366c-0.044-0.197-0.066-0.404-0.098-0.612
				c-0.011-0.066-0.011-0.12-0.011-0.186c0.044-0.339,0.033-0.688,0.055-1.027c2.852,0.841,5.781,1.475,8.677,2.033
				c9.704,1.847,19.626,2.524,29.472,1.694c5.508-0.459,10.949-1.344,16.282-2.721c0.022,0.164,0.055,0.339,0.087,0.503v0.109
				c0,0.044-0.011,0.087,0,0.131c0.011,0.142,0.022,0.295,0.011,0.437C277.275,353.676,277.231,354.059,277.155,354.43z
				 M293.448,300.885c-0.59,5.562-1.355,11.102-2.349,16.588c-0.623,3.41-1.333,6.797-2.218,10.141
				c-0.382,1.41-0.776,2.808-1.224,4.196c-0.186,0.59-0.383,1.169-0.579,1.748c-0.044,0.109-0.164,0.459-0.197,0.557
				c-0.087,0.219-0.164,0.437-0.251,0.656c-0.699,1.825-1.497,3.617-2.459,5.333c-0.371,0.656-0.754,1.289-1.18,1.912
				c-0.109,0.153-0.24,0.317-0.35,0.426l0.219-0.219c-0.219,0.219-0.383,0.492-0.59,0.721c-0.339,0.404-0.71,0.765-1.082,1.137
				c-0.175,0.077-0.404,0.175-0.579,0.251c-0.841,0.055-1.825,0.273-2.71,0.634c-10.217,3.038-20.828,4.174-31.471,3.584
				c-2.382-0.131-4.764-0.35-7.136-0.634c-0.492-0.055-0.984-0.12-1.464-0.186c-0.219-0.033-0.437-0.066-0.656-0.098
				c-0.055,0-0.109-0.011-0.131-0.011c-0.994-0.164-2-0.328-2.994-0.503c-3.016-0.546-6.01-1.224-8.961-2.054
				c-1.311-0.371-2.623-0.754-3.901-1.224c-0.459-0.175-0.973-0.208-1.475-0.153c-0.142-0.098-0.273-0.186-0.415-0.284
				c-0.186-0.175-0.372-0.35-0.557-0.535c-0.896-0.918-1.661-1.978-2.349-3.071c-0.197-0.317-0.393-0.645-0.579-0.973
				c-0.098-0.164-0.186-0.339-0.284-0.514c-0.033-0.066-0.055-0.109-0.087-0.153c-0.022-0.044-0.044-0.087-0.055-0.109v-0.011
				c-0.011-0.011-0.011-0.011-0.011-0.011c0-0.011-0.011-0.022-0.011-0.033v-0.011c-0.415-0.841-0.809-1.672-1.169-2.535
				c-2.24-5.3-3.628-10.949-4.764-16.577c-1.3-6.491-2.24-13.059-2.928-19.648c-0.273-2.601,2.317-4.535,4.732-3.562
				c3.617,1.475,8.294,3.256,11.397,4.021c32.553,7.977,54.332,1.497,64.658-3.235C290.366,295.028,293.809,297.509,293.448,300.885
				z"/>
			<path style="fill:#020202;" d="M282.643,342.447C282.433,342.668,282.501,342.606,282.643,342.447L282.643,342.447z"/>
		</g>
		<path id="SVGID_x5F_1_x5F_" style="fill:none;" d="M289.224,97.048c-59.697-21.663-125.652,9.171-147.315,68.868
			c-21.663,59.697,9.171,125.653,68.868,147.315c59.697,21.663,125.652-9.171,147.315-68.868
			C379.754,184.666,348.921,118.711,289.224,97.048"/>
		<text>		<textPath  xlink:href="#SVGID_x5F_1_x5F_" startOffset="30.7373%">
<tspan  style="font-family:'Mansalva-Regular'; font-size:16.7832px;">1898 shochu</tspan>		</textPath>
</text>
		<path style="fill:#020202;" d="M273.426,353.015c0,0,4.74-0.554,3.223,2.772c-1.516,3.326,7.265-3.113,3.987-5.455
			C277.358,347.99,273.426,353.015,273.426,353.015z"/>
		<path style="fill:#FF1A1A;" d="M249.063,273.373c-13.072,0-24.655,3.063-31.804,7.774c-2.876,1.895-2.646,6.25,0.461,7.735
			c9.652,4.614,20.56,6.595,32.108,6.595c11.168,0,21.74-1.805,31.155-6.126c3.11-1.427,3.419-5.723,0.625-7.698
			C274.536,276.653,262.599,273.373,249.063,273.373z"/>
	</g>
</g>
</svg>
